<svg xmlns="http://www.w3.org/2000/svg" xmlns:xlink="http://www.w3.org/1999/xlink">
    <defs>
        <symbol id="home" viewBox="0 0 22 22">
            <path
                style="fill:currentColor;fill-opacity:1;stroke:none" 
                d="M 11,3 10.292969,3.7070312 3,11 3.7070312,11.707031 4,11.414062 4,19 l 1,0 5,0 3,0 5,0 0,-1 0,-6.585938 0.292969,0.292969 L 19,11 17,9 16.292969,9.7070312 17,10.414062 17,18 l -4,0 0,-5 -3,0 -1,0 0,5 -4,0 0,-7.585938 6,-5.9999995 1.292969,1.2929687 L 13,5 11.707031,3.7070312 Z m 3,2 0,3 2,0 0,-3 z"/>
        </symbol>
        <symbol id="folder" viewBox="0 0 22 22">
            <path style="fill:currentColor;fill-opacity:1;stroke:none" 
                  d="M 3 3 L 3 4 L 3 19 L 4 19 L 19 19 L 19 18 L 19 5 L 12.007812 5 L 10.007812 3 L 10 3.0078125 L 10 3 L 4 3 L 3 3 z M 4 4 L 7 4 L 9.5859375 4 L 10.589844 5.0039062 L 6.5703125 9 L 6.5683594 9 L 4 9 L 4 4 z M 9.0078125 8 L 18 8 L 18 18 L 4 18 L 4 10 L 5.5625 10 L 7 10 L 7 9.9921875 L 7.0078125 10 L 9.0078125 8 z "/>
        </symbol>
        <symbol id="record" viewBox="0 0 22 22">
            <path style="fill:currentColor;fill-opacity:1;stroke:none" 
                  d="M 3 3 L 3 4 L 3 19 L 4 19 L 19 19 L 19 18 L 19 5 L 12.007812 5 L 10.007812 3 L 10 3.0078125 L 10 3 L 4 3 L 3 3 z M 4 4 L 7 4 L 9.5859375 4 L 10.589844 5.0039062 L 6.5703125 9 L 6.5683594 9 L 4 9 L 4 4 z M 9.0078125 8 L 18 8 L 18 18 L 4 18 L 4 10 L 5.5625 10 L 7 10 L 7 9.9921875 L 7.0078125 10 L 9.0078125 8 z "/>
        </symbol>
        <symbol id="x-office-document" viewBox="0 0 22 22">
            <g id="layer1" transform="matrix(1 0 0 1 -326 -534.3622)">
                <rect width="0" x="273.38181" y="518.47876" height="14.668059" style="fill:currentColor" id="rect4035"/>
                <rect width="0" x="280.34238" y="541.04938" height="14.668059" style="fill:currentColor" id="rect4035-8"/>
                <rect width="0" x="282.15567" y="539.98865" height="14.668059" style="fill:currentColor" id="rect4035-0"/>
                <g id="layer1-23">
                    <rect width="0" x="273.38181" y="518.47876" height="14.668059" style="fill:currentColor" id="rect4035-3"/>
                    <rect width="0" x="280.34238" y="541.04938" height="14.668059" style="fill:currentColor" id="rect4035-8-9"/>
                    <rect width="0" x="282.15567" y="539.98865" height="14.668059" style="fill:currentColor" id="rect4035-0-4"/>
                    <path style="fill:currentColor;stroke-linecap:round;stroke-linejoin:round;stroke-width:2" id="rect4847" d="M 3 3 L 3 4 L 11 4 L 11 3 L 3 3 z M 3 7 L 3 8 L 19 8 L 19 7 L 3 7 z M 3 11 L 3 12 L 10 12 L 10 11 L 3 11 z M 11 11 L 11 19 L 19 19 L 19 11 L 11 11 z M 12 12 L 18 12 L 18 18 L 12 18 L 12 12 z M 3 14 L 3 15 L 10 15 L 10 14 L 3 14 z M 3 18 L 3 19 L 10 19 L 10 18 L 3 18 z " transform="matrix(1 0 0 1 326 534.3622)"/>
                </g>
            </g>
        </symbol>
        <symbol id="x-office-spreadsheet" viewBox="0 0 22 22">
            <g id="layer1"
               transform="matrix(1 0 0 1 -326 -534.3622)">
                <rect width="0" x="273.38181" y="518.47876" height="14.668059" style="fill:currentColor;fill-opacity:1" id="rect4035" />
                <rect width="0" x="280.34238" y="541.04938" height="14.668059" style="fill:currentColor;fill-opacity:1" id="rect4035-8" />
                <rect width="0" x="282.15567" y="539.98865" height="14.668059" style="fill:currentColor;fill-opacity:1" id="rect4035-0" />
                <path
                    style="fill:currentColor;stroke-width:2;fill-opacity:1"
                    id="rect4376"
                    d="M 3 3 L 3 19 L 19 19 L 19 3 L 3 3 z M 4 4 L 18 4 L 18 8 L 4 8 L 4 4 z M 4 9 L 8 9 L 8 13 L 4 13 L 4 9 z M 9 9 L 13 9 L 13 13 L 9 13 L 9 9 z M 14 9 L 18 9 L 18 13 L 14 13 L 14 9 z M 4 14 L 8 14 L 8 18 L 4 18 L 4 14 z M 9 14 L 13 14 L 13 18 L 9 18 L 9 14 z M 14 14 L 18 14 L 18 18 L 14 18 L 14 14 z "
                    transform="matrix(1 0 0 1 326 534.3622)" />
            </g>
        </symbol>
        <symbol id="x-office-presentation" viewBox="0 0 22 22">
            <rect width="0" x="-7.7200928" y="3.9626901" height="10.999983" style="fill:#ff8b23;fill-opacity:1" id="rect4035" />
            <path style="fill:currentColor;fill-opacity:1"
                  d="M 3,3 3,5 2,5 2,19 20,19 20,5 19,5 19,3 Z M 4,4 18,4 18,5 4,5 Z M 3,6 19,6 19,18 3,18 Z m 5,2 0,8 7,-4 z"
                  id="path4"/>
        </symbol>
        <symbol id="x-office-drawing" viewBox="0 0 22 22">
            <g id="layer1" transform="matrix(1 0 0 1 -326 -534.3622)">
                <path
                    style="opacity:1;fill:currentColor;fill-opacity:1;stroke:none;stroke-width:10;stroke-miterlimit:4;stroke-dasharray:none;stroke-opacity:1"
                    d="m 330,536.3622 0,2.99219 3,0 0,-2.99219 -3,0 z m 14,0 c -5.25449,0.003 -9.98966,2.19569 -12,5.55664 l 0,-2.55664 -1,0 0,3.55078 c -1.16388,0.23758 -1.99987,1.26134 -2,2.44922 0.002,1.18641 0.83756,2.20803 2,2.44531 l 0,3.55469 -1,0 0,3 3,0 0,-3 -1,0 0,-2.54492 c 2.01561,3.35635 6.74962,5.54383 12,5.54492 l 0,-1 c -5.30357,-0.003 -9.9753,-2.32644 -11.49023,-5.71484 0.90521,-0.39968 1.4895,-1.29564 1.49023,-2.28516 -10e-4,-0.99044 -0.5874,-1.88666 -1.49414,-2.28516 1.51535,-3.38932 6.18913,-5.7131 11.49414,-5.71484 l 0,-1 z m -13,1.03516 1,0 0,1 -1,0 0,-1 z m 0.5,6.46484 a 1.5,1.5 0 0 1 1.5,1.5 1.5,1.5 0 0 1 -1.5,1.5 1.5,1.5 0 0 1 -1.5,-1.5 1.5,1.5 0 0 1 1.5,-1.5 z m -0.5,8.5 1,0 0,1 -1,0 0,-1 z"
                    id="rect4147" />
            </g>
        </symbol>
        
        
        <symbol id="image-x-generic" viewBox="0 0 22 22">
            <g id="layer1" transform="matrix(1 0 0 1 -326 -534.3622)">
                <rect width="0" x="326.49567" y="535.98694" height="10.999983" style="fill:currentColor" id="rect4035" />
                <rect width="0" x="321.94366" y="538.50604" height="10.999983" style="fill:currentColor" id="rect4035-7" />
                <rect width="0" x="317.43588" y="526.08746" height="10.999983" style="fill:currentColor" id="rect4035-9" />
                <rect width="0" x="318.27991" y="538.32489" height="10.999983" style="fill:currentColor" id="rect4035-96" />
                <rect width="0" x="313.72791" y="540.84399" height="10.999983" style="fill:currentColor" id="rect4035-7-0" />
                <rect width="0" x="309.22012" y="528.42542" height="10.999983" style="fill:currentColor" id="rect4035-9-6" />
                <path style="clip-rule:nonzero;display:inline;overflow:visible;visibility:visible;opacity:1;isolation:auto;mix-blend-mode:normal;solid-opacity:1;fill:currentColor;fill-opacity:1;fill-rule:nonzero;stroke:none;stroke-width:1;stroke-linecap:butt;stroke-linejoin:miter;stroke-miterlimit:4;stroke-opacity:1;enable-background:accumulate"
                      d="m 329,539.3622 0,1 0,0.5 0,1.5 0,0.20508 0,0.29297 0,7.30273 0,0.19922 0,1 0,0.41992 0,0.58008 16,0 0,-0.6875 0,-0.3125 0,-12 -1,0 -11,0 -0.50391,0 -0.45703,0 -1.53906,0 -0.5,0 -1,0 z m 1,1 1.91211,0 a 1.500001,1.500001 0 0 1 0.0879,0.5 1.500001,1.500001 0 0 1 -1.5,1.5 1.500001,1.500001 0 0 1 -0.5,-0.0879 l 0,-1.91211 z m 2.94727,0 0.0527,0 11,0 0,11 -14,0 0,-0.0723 0,-0.0879 0,-0.62304 2.32617,-2.29883 1.4082,-1.4043 1.56446,1.41797 1.10156,1.06836 3.59961,-3.39844 3,2.89063 0,-1.49219 -3,-3 -3.59961,3.59961 -2.59961,-2.59961 -3.80078,3.80078 0,-5.85351 a 2.5000029,2.5000029 0 0 0 0.5,0.0527 2.5000029,2.5000029 0 0 0 2.5,-2.5 2.5000029,2.5000029 0 0 0 -0.0527,-0.5 z"
                      id="path4251"
                />
            </g>
        </symbol>
        
        <symbol id="image-png" viewBox="0 0 22 22">
            <use xlink:href="#image-x-generic" class="icon-blue" />
        </symbol>
        
        <symbol id="image-jpeg" viewBox="0 0 22 22">
            <use xlink:href="#image-x-generic" class="icon-red" />
        </symbol>
        
        <symbol id="image-bmp" viewBox="0 0 22 22">
            <use xlink:href="#image-x-generic" class="icon-yellow" />
        </symbol>
        
        <symbol id="image-svg-xml" viewBox="0 0 22 22">
            <use xlink:href="#image-x-generic" class="icon-green" />
        </symbol>
        
        <symbol id="image-gif" viewBox="0 0 22 22">
            <use xlink:href="#image-x-generic" class="icon-brown" />
        </symbol>
        
        <symbol id="application-pdf" viewBox="0 0 22 22">
            <g id="layer1" transform="matrix(1 0 0 1 -326 -534.3622)">
                <rect width="0" x="273.38181" y="518.47876" height="14.668059" style="fill:#04896a" id="rect4035"/>
                <rect width="0" x="280.34238" y="541.04938" height="14.668059" style="fill:#16907d" id="rect4035-8"/>
                <rect width="0" x="282.15567" y="539.98865" height="14.668059" style="fill:#6c7a89" id="rect4035-0"/>
                <path style="fill:#cf000f" id="path26" d="m 3.8563926,1038.3619 c -0.1620039,0.01 -0.3360071,0 -0.5270111,0.132 -1.7040376,0.7323 -0.5610818,2.7413 1.610965,4.2706 0.013004,-0.2881 0.1330718,-0.9155 0.1300718,-1.1916 -1.8530404,-1.2688 -2.9370637,-2.504 -1.7560385,-2.9937 1.2450273,-0.5162 1.6314446,0.8931 1.6534449,2.9385 0.1160024,0.12 0.9195931,0.6531 1.0415955,0.7372 -0.045,-1.8654 -1.0380041,-3.7694 -1.9920247,-3.8774 -0.051,-0.01 -0.1070024,-0.01 -0.1610035,-0.01 m 1.734762,3.2454 -0.3877326,-0.1508 -0.3214651,0.2163 -0.064748,0.6807 0.4060512,0.311 0.1685119,0.2258 c 1.2500277,0.8283 2.314987,1.4663 3.7160175,1.9933 l 0.8737343,0.1296 0.5750118,0 c 0.530011,-0.3121 0.214005,-0.4322 2.140047,-0.6722 l -2.170047,0.168 c -1.6740362,-0.6482 -3.3823484,-1.5791 -4.936383,-2.5947 m 3.8199596,2.7152 c 0.2510051,0 2.2094464,-0.1697 2.9884634,-0.2417 0.771017,-0.1201 1.718038,-0.1561 1.539034,0.7442 0.204004,-0.4801 -0.260838,-1.2952 -0.921853,-1.4392 -1.022022,-0.2281 -2.643825,0.3974 -3.2268372,0.5895 m 0.9396202,0.2495 c -0.304006,0.1201 -0.9985291,0.2069 -1.326536,0.3149 0.4650108,0.2401 2.79971,1.1011 3.763731,0.921 0.154003,0 0.804875,-0.4676 0.820876,-0.8038 -0.05,0.6122 -2.904063,0.1561 -3.258071,-0.4441 m 0.635014,0.011 c -0.250006,-0.12 -1.4206556,-0.1141 -1.6796614,-0.2101 -1.4666569,0.5124 -3.4394495,1.7154 -4.8514807,2.5268 l -0.4090085,0.1201 c -0.078868,0.5604 -0.4246069,0.7534 -0.740016,1.1163 l 0.4780107,0.4802 0.3740078,-0.6122 c 1.6530354,-0.9963 4.9211068,-2.606 6.8271481,-3.3791 m -6.8271481,3.3791 c -0.2020041,0.12 -0.3950083,0.2401 -0.5780127,0.3601 -0.424009,1.2016 -0.9180196,2.0106 -1.3900303,1.9758 0.7290164,0.3481 2.2992398,-1.3673 2.828251,-2.9806 m -2.828251,2.9806 c -1.1120236,-0.6602 1.2418265,-1.8633 1.7688375,-2.2126 0.1190029,-0.3361 -0.2063133,-0.893 -0.1003117,-1.2892 -1.6600363,1.0324 -2.6415472,2.5259 -2.0845351,3.2341 0.1340029,0.1681 0.276006,0.2521 0.4170093,0.2641 m 1.615552,-2.5151 c 0.077302,-0.3094 1.1027298,-1.0131 1.2877338,-1.1212 0.2480895,-1.9505 0.259907,-2.1431 0.4706356,-3.6594 -0.1260022,-0.12 -0.9015505,-0.7238 -1.0215527,-0.8078 -0.1489201,1.6205 -0.4289977,3.8165 -0.8250059,5.2833" transform="matrix(1.3342187 0 0 1.3359009 326.3388 -849.7864)"/>
            </g>
        </symbol>
        
        
        <symbol id="text-plain" viewBox="0 0 22 22">
            <g id="layer1" transform="matrix(1 0 0 1 -326 -534.3622)">
                <rect width="8" x="329" y="537.36218" height="1.00002" style="fill:currentColor" id="rect4279"/>
                <rect width="16" x="329" y="541.36218" height="1" style="fill:currentColor" id="rect4281"/>
                <rect width="16" x="329" y="548.36218" height="1" style="fill:currentColor" id="rect4283"/>
                <rect width="8" x="329" y="545.36218" height="1" style="fill:currentColor" id="rect4285"/>
                <rect width="12" x="329" y="552.36218" height="0.999983" style="fill:currentColor" id="rect4287"/>
            </g>
        </symbol>
        
        <symbol id="text-x-asciidoc" viewBox="0 0 22 22">
            <use xlink:href="#text-plain" class="icon-blue" />
        </symbol>
        
        <symbol id="text-x-web-markdown" viewBox="0 0 22 22">
            <use xlink:href="#text-plain" class="icon-red" />
        </symbol>
        
        <symbol id="text-csv" viewBox="0 0 22 22">
            <g id="layer1" transform="matrix(1 0 0 1 -326 -534.3622)">
                <path style="fill:#04896a;stroke-width:2" id="rect4376" d="M 3 3 L 3 19 L 14 19 L 14 18 L 14 14 L 14 13 L 14 9 L 18 9 L 18 13 L 19 13 L 19 3 L 3 3 z M 4 4 L 18 4 L 18 8 L 4 8 L 4 4 z M 4 9 L 8 9 L 8 13 L 4 13 L 4 9 z M 9 9 L 13 9 L 13 13 L 9 13 L 9 9 z M 4 14 L 8 14 L 8 18 L 4 18 L 4 14 z M 9 14 L 13 14 L 13 18 L 9 18 L 9 14 z " transform="matrix(1 0 0 1 326 534.3622)"/>
                <path style="fill:#04896a" id="rect4031" d="m 342.5,548.3622 c -0.83101,0 -1.5,0.63799 -1.5,1.42969 0,0.7634 0.62316,1.37632 1.41211,1.41992 0.0575,0.2617 0.0869,0.52812 0.0879,0.79492 -0.002,0.4631 -0.0888,0.92207 -0.25781,1.35547 1.1,-0.7343 1.75582,-1.93289 1.75781,-3.21289 l 0,-0.35742 c 0,-0.7918 -0.669,-1.42969 -1.5,-1.42969 z"/>
            </g>
        </symbol>
        
        <symbol id="application-x-sh" viewBox="0 0 22 22">
            <g id="layer1" transform="matrix(1 0 0 1 -326 -534.3622)">
                
                <path style="shape-rendering:auto;color-interpolation-filters:linearRGB;fill:currentColor;image-rendering:auto;text-rendering:auto;color:#000000;fill-rule:evenodd;color-rendering:auto;color-interpolation:sRGB" 
                      id="path4313" d="M 4.765625 4 L 4 4.6054688 L 8.7070312 10 L 4 15.394531 L 4.765625 16 L 10 10 L 4.765625 4 z M 10 17 L 10 18 L 18 18 L 18 17 L 10 17 z " transform="matrix(1 0 0 1 326 534.3622)"/>
            </g>
        </symbol>
        
        <symbol id="text-html" viewBox="0 0 22 22">
            <g id="layer1" transform="matrix(1 0 0 1 -326 -534.3622)">
                <rect width="0" x="287.74176" y="526.70184" height="10.999983" style="fill:#04896a" id="rect4035" />
                <path style="fill:#209ae7;color:#000000;fill-opacity:1"
                      id="path3011"
                      d="m 337.00405,537.3622 c -0.31896,0 -0.62792,0.026 -0.93788,0.063 -0.30396,0.036 -0.61392,0.087 -0.90589,0.1559 -0.094,0.022 -0.18497,0.067 -0.28096,0.094 -0.084,0.023 -0.16698,0.037 -0.24997,0.063 -0.10499,0.033 -0.21397,0.059 -0.31296,0.094 -0.10699,0.038 -0.20697,0.083 -0.31296,0.1249 -0.20597,0.083 -0.39695,0.182 -0.59393,0.2809 -0.071,0.036 -0.14898,0.056 -0.21897,0.094 -0.22997,0.1209 -0.44094,0.2629 -0.65592,0.4058 -0.082,0.055 -0.16997,0.098 -0.24996,0.1559 -0.033,0.024 -0.061,0.038 -0.094,0.063 -0.094,0.071 -0.19098,0.1418 -0.28097,0.2188 -0.10698,0.089 -0.20997,0.1869 -0.31296,0.2809 -0.032,0.03 -0.062,0.064 -0.094,0.094 -0.011,0.011 -0.02,0.02 -0.031,0.031 -0.016,0.016 -0.015,0.047 -0.031,0.063 -0.20997,0.2039 -0.43894,0.3988 -0.62492,0.6247 -0.005,0.01 0.005,0.025 0,0.031 -0.18098,0.2199 -0.34296,0.4478 -0.49994,0.6877 -0.021,0.032 -0.042,0.061 -0.063,0.094 -0.015,0.024 -0.047,0.037 -0.063,0.063 -0.06,0.098 -0.10099,0.209 -0.15598,0.3129 -0.018,0.033 -0.045,0.061 -0.063,0.094 -0.075,0.1459 -0.14998,0.2898 -0.21897,0.4378 -0.004,0.01 0.004,0.023 0,0.031 -0.11699,0.2528 -0.22198,0.5136 -0.31296,0.7805 -0.019,0.053 -0.045,0.103 -0.063,0.156 -0.003,0.01 0.003,0.022 0,0.031 -0.02,0.062 -0.044,0.125 -0.063,0.188 -0.073,0.2568 -0.13998,0.5137 -0.18798,0.7806 -0.034,0.1919 -0.074,0.3968 -0.094,0.5938 -0.027,0.2648 -0.031,0.5417 -0.031,0.8125 0,0.4038 0.036,0.7996 0.094,1.1875 0.006,0.041 -0.007,0.085 0,0.1249 0.044,0.2659 0.11798,0.5248 0.18798,0.7807 0.026,0.096 0.064,0.1859 0.094,0.2809 0.04,0.1289 0.079,0.2489 0.12499,0.3748 0.077,0.2119 0.15598,0.4218 0.24997,0.6246 0.05,0.106 0.10198,0.2099 0.15598,0.3129 0.15198,0.2919 0.31496,0.5747 0.49993,0.8436 0.016,0.024 0.046,0.039 0.063,0.063 0.19797,0.2809 0.39395,0.5597 0.62492,0.8126 0.04,0.044 0.084,0.082 0.12498,0.125 0.04,0.042 0.084,0.084 0.12499,0.1249 0.21397,0.2139 0.45094,0.4048 0.68791,0.5938 0.30596,0.2438 0.62892,0.4587 0.96888,0.6556 0.012,0.01 0.019,0.024 0.031,0.031 0.053,0.03 0.10299,0.065 0.15598,0.094 0.31596,0.156 0.69192,0.3249 0.93788,0.4378 0.10999,0.042 0.23098,0.057 0.34396,0.094 0.053,0.018 0.10299,0.046 0.15598,0.063 0.13598,0.041 0.26797,0.09 0.40595,0.1249 0.042,0.011 0.083,0.021 0.12499,0.031 0.29196,0.069 0.60192,0.1209 0.90588,0.1559 0.30896,0.036 0.61792,0.063 0.93788,0.063 0.33996,0 0.67092,-0.021 0.99988,-0.063 0.36495,-0.048 0.68091,-0.1239 0.99987,-0.1879 1.69779,-0.4358 3.1616,-1.4213 4.21847,-2.7487 0.028,-0.035 0.067,-0.058 0.094,-0.094 0.009,-0.012 0.022,-0.02 0.031,-0.031 0.014,-0.018 0.018,-0.044 0.031,-0.063 0.62292,-0.8246 1.07686,-1.7801 1.34383,-2.8117 0.056,-0.2169 0.11799,-0.4318 0.15598,-0.6557 0.005,-0.03 -0.005,-0.063 0,-0.094 0.006,-0.04 0.025,-0.079 0.031,-0.125 0.006,-0.043 0.026,-0.082 0.031,-0.1249 l -0.031,0 c 0.044,-0.3289 0.094,-0.6587 0.094,-0.9996 0,-0.5517 -0.05,-1.1034 -0.15598,-1.6242 -0.009,-0.043 -0.022,-0.082 -0.031,-0.1249 -0.046,-0.2079 -0.12398,-0.4229 -0.18798,-0.6248 -0.003,-0.01 0.003,-0.022 0,-0.031 -0.012,-0.038 -0.018,-0.056 -0.031,-0.094 -0.039,-0.119 -0.081,-0.2579 -0.12498,-0.3748 -0.012,-0.032 -0.018,-0.064 -0.031,-0.094 -0.043,-0.109 -0.10799,-0.2059 -0.15598,-0.3128 -0.002,0 0.002,-0.026 0,-0.031 -0.025,-0.054 -0.068,-0.1029 -0.094,-0.1559 -0.098,-0.2029 -0.19797,-0.3998 -0.31296,-0.5937 -0.058,-0.098 -0.094,-0.2169 -0.15598,-0.3129 -0.024,-0.036 -0.069,-0.058 -0.094,-0.094 -0.067,-0.099 -0.14698,-0.185 -0.21897,-0.2809 -0.08,-0.1 -0.13999,-0.2159 -0.21898,-0.3129 -0.005,-0.01 0.005,-0.025 0,-0.031 -0.17197,-0.2089 -0.36995,-0.4028 -0.56292,-0.5937 -0.093,-0.092 -0.18398,-0.1939 -0.28097,-0.2809 -0.028,-0.025 -0.065,-0.038 -0.094,-0.063 -0.20897,-0.1819 -0.42994,-0.3398 -0.65592,-0.4996 -0.055,-0.038 -0.10098,-0.088 -0.15598,-0.125 -0.07,-0.046 -0.14798,-0.081 -0.21897,-0.1249 -0.13498,-0.084 -0.26597,-0.174 -0.40595,-0.2499 -0.12298,-0.067 -0.24797,-0.127 -0.37495,-0.1879 -0.21397,-0.102 -0.43195,-0.198 -0.65592,-0.2809 -0.26596,-0.099 -0.53393,-0.1799 -0.8129,-0.2499 -0.24496,-0.062 -0.49693,-0.118 -0.7499,-0.1559 -0.39695,-0.061 -0.8049,-0.094 -1.21885,-0.094 m 0,0.9996 c 0.29896,0 0.58493,0.027 0.87489,0.063 0.17998,0.023 0.35496,0.058 0.53093,0.094 0.01,0 0.021,0 0.031,0 0.16598,0.035 0.33796,0.079 0.49994,0.1249 0.096,0.027 0.18698,0.063 0.28097,0.094 0.17197,0.057 0.33395,0.1169 0.49993,0.1879 0.19398,0.08 0.37896,0.1528 0.56293,0.2498 -0.031,0.01 -0.063,0.021 -0.094,0.031 -0.047,0.017 -0.11298,0.096 -0.12498,0.1249 -0.02,0.048 0.005,0.115 0,0.188 0.038,0.017 0.06,0.089 0.12498,0.1249 0.025,0.014 0.041,-0.01 0.063,0 0.038,0.021 0.07,0.087 0.063,0.1249 -0.011,0.055 -0.088,0.022 -0.12498,0.063 0.006,0.078 -0.043,0.105 -0.063,0.1559 0.012,0.033 0.057,0.024 0.063,0.063 -0.007,0.043 -0.079,0.049 -0.063,0.094 0.072,0.056 0.15098,-0.022 0.21897,-0.031 0.14898,-0.019 0.28297,0.041 0.37495,-0.031 -0.012,-0.071 0.10099,-0.092 0.094,-0.1559 -0.006,-0.048 -0.09,-0.061 -0.12498,-0.094 -0.019,-0.018 -0.04,-0.059 -0.063,-0.094 -0.026,-0.04 -0.064,-0.087 -0.094,-0.125 -0.039,-0.052 -0.12498,-0.1169 -0.12498,-0.1559 0.001,-0.045 0.052,-0.063 0.063,-0.125 -0.012,-0.057 -0.11699,0 -0.12499,-0.063 0.002,-0.019 0.021,-0.051 0.031,-0.063 0.14998,0.082 0.29796,0.1789 0.43795,0.2809 0.032,0.021 0.062,0.041 0.094,0.063 0.10798,0.081 0.20697,0.17 0.31296,0.2499 -0.067,0.012 -0.10099,0.09 -0.15598,0.156 -0.038,0.046 -0.099,0.1009 -0.15598,0.1249 -0.028,0.012 -0.068,-0.016 -0.094,0 -0.037,0.025 -0.051,0.096 -0.094,0.125 -0.031,0.021 -0.12399,0.094 -0.15598,0.094 -0.038,10e-4 -0.098,-0.04 -0.12499,-0.031 -0.04,0.013 -0.017,0.077 -0.063,0.094 -0.088,0.031 -0.24997,-0.069 -0.28096,0.063 0.038,0.076 0.15298,0.051 0.21897,0.094 0.042,0.026 0.11399,0.143 0.12498,0.1879 0.01,0.038 0.015,0.179 0,0.2189 -0.041,0.106 -0.15898,0.097 -0.28096,0.094 -0.034,-10e-4 -0.063,0 -0.094,0 -0.20697,-0.014 -0.40695,-0.085 -0.49994,0.063 0.007,0.1129 0.025,0.1829 0,0.2808 -0.018,0.072 -0.097,0.125 -0.094,0.188 0.002,0.032 0.055,0.082 0.063,0.1249 0.005,0.023 -0.011,0.073 0,0.094 0.034,0.066 0.12699,-0.01 0.18798,0 0.059,0.01 0.12598,0.1209 0.12498,0.1879 -10e-4,0.046 -0.033,0.1119 -0.063,0.1559 -0.058,0.089 -0.16698,0.077 -0.24997,0.1249 -0.07,0.039 -0.084,0.1189 -0.12498,0.1879 -0.044,0.074 -0.081,0.1109 -0.063,0.2189 -0.06,0.1179 -0.12598,0.1939 -0.24997,0.2499 -0.037,0.017 -0.092,0.039 -0.12498,0.063 -0.027,0.019 -0.056,0.051 -0.094,0.094 -0.047,0.052 -0.1,0.085 -0.12499,0.125 -0.019,0.031 -0.01,0.084 -0.031,0.1249 -0.029,0.056 -0.088,0.1 -0.12498,0.1559 -0.017,0.026 -0.043,0.059 -0.063,0.094 -0.042,0.077 -0.10099,0.1509 -0.094,0.2189 0.007,0.066 0.089,0.068 0.094,0.1249 0.004,0.032 -0.033,0.059 -0.031,0.094 0.001,0.051 0.027,0.086 0.031,0.1249 0.01,0.099 -0.044,0.12 -0.063,0.188 -0.009,0.032 0.008,0.068 0,0.094 -0.016,0.05 -0.093,0.098 -0.094,0.156 -10e-4,0.042 0.059,0.097 0.063,0.1559 0.002,0.04 -0.038,0.057 -0.031,0.094 0.014,0.073 0.16198,0.162 0.21897,0.2189 0.075,0.075 0.15498,0.139 0.18798,0.219 0.027,0.067 0.041,0.1678 0.094,0.2188 0.039,0.037 0.10598,0.054 0.15598,0.094 0.047,0.036 0.10698,0.055 0.15598,0.094 0.081,0.064 0.18297,0.1969 0.31296,0.1879 0.068,-0.01 0.14198,-0.05 0.21897,-0.063 0.079,-0.014 0.16998,-0.039 0.24997,-0.031 0.061,0.01 0.12398,0.066 0.18797,0.063 0.067,0 0.14299,-0.061 0.21898,-0.094 0.13198,-0.057 0.33896,-0.1529 0.53093,-0.1249 0.14598,0.021 0.14898,0.2169 0.24997,0.2809 0.11798,0.01 0.21897,-0.054 0.31296,-0.031 0.07,0.017 0.14898,0.1319 0.15598,0.1879 0.007,0.058 -0.054,0.121 -0.063,0.1559 -0.018,0.078 -0.017,0.169 -0.031,0.2189 -0.011,0.038 -0.032,0.086 -0.031,0.125 0,0.035 0.058,0.1419 0.094,0.1879 0.044,0.056 0.10299,0.096 0.15598,0.1559 0.087,0.109 0.15498,0.2359 0.21897,0.3749 0.017,0.037 -0.016,0.077 0,0.1249 -0.029,0.2239 -0.10298,0.3769 -0.24997,0.6247 -0.069,0.08 -0.15798,0.15 -0.15598,0.2499 -0.005,0.2399 0.13599,0.3928 0.12499,0.6247 -0.024,0.3118 0.024,0.3328 0,0.4997 0.10499,0.053 0.031,0.2329 0,0.3439 -0.045,0.1319 -0.1,0.1619 -0.12499,0.2499 0.071,0.031 0.17098,0.019 0.24997,0 0,0 0.096,0.4008 0.094,0.4058 -0.8069,0.7967 -1.81877,1.3874 -2.93763,1.7182 -0.54993,0.1329 -0.71291,0.1329 -0.96888,0.1879 -0.33395,0.055 -0.68291,0.094 -1.03087,0.094 -0.24296,0 -0.48293,-0.01 -0.71891,-0.031 -0.18197,-0.018 -0.35395,-0.062 -0.53093,-0.094 -0.053,-0.01 -0.10398,-0.02 -0.15598,-0.031 -0.16298,-0.055 -0.35095,-0.088 -0.49994,-0.1249 -0.16997,-0.048 -0.33495,-0.096 -0.49993,-0.156 0.014,-0.013 0.027,-0.011 0.031,-0.031 0.009,-0.04 0.002,-0.062 0,-0.1249 0.015,-0.065 0.08,-0.058 0.094,-0.1249 -0.028,-0.048 -0.083,-0.038 -0.12498,-0.063 -0.041,-0.024 -0.068,-0.074 -0.063,-0.125 0.07,-0.029 0.19997,0.066 0.24996,-0.031 0.025,-0.046 -0.034,-0.1409 0,-0.1879 0.023,-0.031 0.16898,-0.055 0.21898,-0.063 0.071,-0.012 0.14798,-0.01 0.18797,-0.031 0.044,-0.029 0.10099,-0.105 0.094,-0.188 -0.004,-0.039 -0.033,-0.059 -0.063,-0.094 -0.025,-0.029 -0.013,-0.066 -0.031,-0.094 -0.031,-0.047 -0.08,-0.058 -0.094,-0.1249 0.096,-0.019 0.23597,0.1019 0.37496,0.063 0.066,-0.019 0.15698,-0.188 0.18797,-0.2499 0.01,-0.019 -0.01,-0.04 0,-0.063 0.012,-0.026 0.059,-0.049 0.063,-0.063 0.01,-0.036 -0.008,-0.071 0,-0.094 0.024,-0.068 0.085,-0.075 0.12498,-0.125 0.03,-0.038 0.065,-0.087 0.094,-0.1249 0.031,-0.041 0.042,-0.089 0.063,-0.125 0.02,-0.1219 -0.06,-0.2059 -0.031,-0.3128 0.032,-0.12 0.19598,-0.165 0.31296,-0.2189 0.04,-0.019 0.092,-0.05 0.12499,-0.063 0.08,-0.028 0.17598,-0.036 0.24997,-0.063 0.12498,-0.046 0.15698,-0.1669 0.21897,-0.2809 0.029,-0.054 0.057,-0.1179 0.063,-0.1559 0.005,-0.035 -0.007,-0.053 0,-0.094 0.006,-0.04 0.02,-0.081 0.031,-0.1248 0.014,-0.058 0.031,-0.1539 0.031,-0.2189 0,-0.053 -0.029,-0.078 -0.031,-0.1249 -0.009,-0.173 0.061,-0.218 0.12498,-0.3129 0.032,-0.047 0.04,-0.091 0.063,-0.125 0.10799,-0.1609 0.29497,-0.2259 0.28097,-0.4688 -0.005,-0.08 -0.035,-0.2558 -0.094,-0.2808 -0.034,-0.015 -0.10699,-0.011 -0.15598,-0.031 -0.15798,-0.059 -0.27397,-0.2689 -0.43795,-0.2809 -0.035,0 -0.055,0.031 -0.094,0.031 -0.065,0 -0.14698,-0.053 -0.21897,-0.063 -0.046,-0.01 -0.12898,0.013 -0.15598,0 -0.042,-0.02 -0.029,-0.1019 -0.063,-0.1249 -0.027,-0.018 -0.084,-0.015 -0.12498,-0.031 -0.066,-0.025 -0.11199,-0.056 -0.18798,-0.063 -0.023,-0.001 -0.067,0 -0.094,0 -0.042,-0.01 -0.086,-0.04 -0.12498,-0.063 -0.048,-0.029 -0.074,-0.052 -0.094,-0.094 0.044,-0.1439 -0.096,-0.1669 -0.12498,-0.2499 -0.014,-0.039 0.013,-0.09 0,-0.1249 -0.017,-0.05 -0.071,-0.084 -0.12499,-0.125 -0.097,-0.074 -0.17398,-0.1389 -0.31296,-0.1559 -0.061,-0.01 -0.14498,0 -0.21897,0 -0.078,-0.01 -0.16098,-0.058 -0.21897,-0.125 -0.056,-0.065 -0.076,-0.1249 -0.12499,-0.1559 -0.047,-0.03 -0.12398,-0.031 -0.15598,-0.063 -0.014,-0.014 -0.017,-0.031 -0.031,-0.063 -0.023,-0.048 -0.061,-0.098 -0.031,-0.156 -0.053,-0.027 -0.035,0.072 -0.094,0.063 -0.052,-0.074 -0.10099,-0.115 -0.21897,-0.094 -0.054,0.01 -0.093,0.06 -0.15598,0.063 -0.052,0 -0.088,-0.053 -0.15598,-0.063 -0.052,-0.01 -0.11999,0.036 -0.15598,0.031 -0.057,-0.011 -0.073,-0.059 -0.12499,-0.094 -0.038,-0.025 -0.10398,-0.095 -0.12498,-0.094 -0.067,0 -0.12598,0.1429 -0.21897,0.094 -0.045,-0.057 0.085,-0.071 0.031,-0.125 -0.04,-0.041 -0.061,0.01 -0.094,0.031 -0.037,0.025 -0.084,0.047 -0.12499,0.063 -0.092,0.034 -0.14698,0.025 -0.21897,0.063 -0.066,0.034 -0.087,0.088 -0.12499,0.156 -0.031,0.056 -0.079,0.1529 -0.12498,0.1559 -0.056,0 -0.10599,-0.072 -0.15598,-0.094 -0.15298,-0.066 -0.24797,0.03 -0.37495,0.031 -0.11799,0 -0.28697,-0.1709 -0.28097,-0.2808 0.004,-0.067 0.054,-0.166 0.063,-0.2499 0.006,-0.066 0.062,-0.127 0.063,-0.1879 0.001,-0.081 -0.13499,-0.147 -0.18798,-0.156 -0.12498,-0.023 -0.29496,0.061 -0.43794,0 -0.027,-0.045 0.047,-0.081 0.063,-0.1249 0.009,-0.025 -0.009,-0.034 0,-0.063 0.016,-0.042 0.074,-0.08 0.094,-0.1249 0.015,-0.034 0.016,-0.082 0.031,-0.125 0.017,-0.049 0.059,-0.091 0.063,-0.1249 0.005,-0.045 -0.027,-0.095 -0.063,-0.125 -0.11098,0.01 -0.18697,0 -0.24997,0.031 -0.14398,0.066 -0.10598,0.2659 -0.24997,0.3129 -0.05,0.016 -0.13298,0.021 -0.18797,0.031 -0.047,0.01 -0.10699,0.032 -0.15598,0.031 -0.058,-0.001 -0.15298,-0.057 -0.18798,-0.094 -0.009,-0.01 -0.024,-0.036 -0.031,-0.063 0.002,-0.01 -0.002,-0.021 0,-0.031 0.046,-0.2229 0.093,-0.4438 0.15598,-0.6557 0.003,-0.01 -0.003,-0.022 0,-0.031 0.042,-0.1389 0.10298,-0.2699 0.15598,-0.4058 0.013,-0.01 0.019,-0.023 0.031,-0.031 0.077,-0.053 0.15598,-0.1189 0.24997,-0.1249 0.057,0 0.16398,0.02 0.21897,0.031 0.05,0.01 0.082,0.059 0.12499,0.063 0.12298,0.01 0.14898,-0.1029 0.24997,-0.1559 0.10398,0.015 0.15598,-0.01 0.24996,0 0.064,0.01 0.13799,0.09 0.18798,0.094 0.042,0 0.053,-0.069 0.094,-0.063 0.04,0.01 0.11898,0.1079 0.12498,0.1559 0.007,0.06 -0.048,0.122 -0.031,0.1879 0.063,0.064 0.19097,0.056 0.28096,0.094 0.059,-0.048 0.009,-0.118 0,-0.1879 -0.002,-0.031 0.004,-0.066 0,-0.094 -0.006,-0.048 -0.031,-0.084 -0.031,-0.1249 -0.001,-0.1899 0.15398,-0.2999 0.28096,-0.3749 0.055,-0.033 0.10799,-0.069 0.15598,-0.094 0.067,-0.034 0.1,-0.063 0.15598,-0.094 0.10099,-0.057 0.20198,-0.092 0.28097,-0.1559 0.037,-0.086 -0.004,-0.1959 0,-0.2809 0.037,-0.022 0.055,0 0.094,0 0.061,-0.013 0.09,-0.091 0.12499,-0.1249 0.02,-0.02 0.069,-0.043 0.094,-0.063 0.061,-0.048 0.072,-0.104 0.12498,-0.125 0.019,-0.01 0.064,-0.017 0.094,-0.031 0.04,-0.011 0.092,-0.04 0.15598,-0.063 0.042,-0.014 0.13998,-0.015 0.15598,-0.031 0.02,-0.02 -0.006,-0.095 0,-0.1249 0.032,-0.151 0.27196,-0.168 0.40595,-0.2189 0.094,-0.036 0.17798,-0.114 0.28096,-0.094 -0.02,0.072 -0.10998,0.038 -0.094,0.1249 0.023,0.121 0.17598,-0.013 0.21898,-0.031 0.081,-0.034 0.23697,-0.055 0.34395,-0.094 0.094,-0.034 0.24497,-0.08 0.15598,-0.1879 -0.074,0 -0.092,0.066 -0.15598,0.094 -0.044,0.01 -0.056,-0.027 -0.094,-0.031 -0.036,0 -0.057,0.038 -0.094,0.031 -0.037,-0.01 -0.088,-0.082 -0.094,-0.1249 -0.015,-0.111 0.10999,-0.136 0.15598,-0.2189 -0.03,-0.101 -0.16598,-0.024 -0.24997,-0.063 0.009,-0.06 0.055,-0.1139 0.12499,-0.1249 0.057,-0.01 0.18497,0.01 0.21897,0.031 0.02,0.017 0,0.066 0.031,0.094 0.034,0.031 0.081,0.01 0.12499,0 0.016,-0.076 -0.10599,-0.043 -0.094,-0.094 0.09,-0.059 0.26497,-0.016 0.37495,-0.031 0.063,-0.01 0.13099,-0.062 0.18798,-0.094 0.054,-0.03 0.099,-0.081 0.15598,-0.031 0.016,0.054 -0.032,0.066 -0.063,0.094 -0.10199,0.091 -0.20198,0.2069 -0.28097,0.3128 0.049,0.048 0.13599,0.022 0.21898,0.031 0.032,0 0.06,0.025 0.094,0.031 0.04,0.01 0.094,-0.012 0.12499,0 0.056,0.014 0.07,0.094 0.12498,0.094 0.091,0 0.083,-0.125 0.031,-0.1879 0.016,-0.063 0.053,-0.08 0.031,-0.125 -0.041,-0.082 -0.21097,0.014 -0.21897,-0.094 -0.005,-0.067 0.07,-0.075 0.094,-0.125 -0.011,-0.1289 0.10598,-0.1349 0.094,-0.2499 -0.006,-0.048 -0.06,-0.049 -0.094,-0.094 -0.017,-0.023 -0.01,-0.076 -0.031,-0.094 -0.07,-0.059 -0.20997,-0.044 -0.21897,-0.1559 -0.004,-0.066 0.01,-0.115 0,-0.1879 -0.009,-0.067 -0.066,-0.2679 -0.12498,-0.2809 -0.075,-0.016 -0.12899,0.1139 -0.21898,0.1559 -0.049,0.023 -0.13898,0.04 -0.18797,0.031 -0.032,-0.01 -0.089,-0.032 -0.094,-0.094 -0.006,-0.07 0.05,-0.082 0.063,-0.1558 -0.011,-0.044 -0.051,-0.029 -0.094,-0.063 -0.049,-0.037 -0.091,-0.1159 -0.15598,-0.1249 -0.033,0 -0.093,0.029 -0.12498,0.031 -0.06,0 -0.10599,-0.015 -0.15598,-0.031 0.021,-0.01 0.041,-0.024 0.063,-0.031 0.12198,-0.042 0.24997,-0.059 0.37495,-0.094 0.022,-0.01 0.041,-0.025 0.063,-0.031 0.031,0.033 0.056,0.1029 0.094,0.1249 0.025,0.014 0.063,-0.01 0.094,0 0.098,0.03 0.17398,0.085 0.28097,0.063 0.037,-0.065 -0.074,-0.074 -0.031,-0.125 0.072,0.01 0.13198,0.04 0.18798,0.063 0.077,-0.056 0.12798,-0.066 0.12498,-0.1559 -10e-4,-0.046 -0.062,-0.063 -0.094,-0.094 0.063,-0.011 0.12399,-0.022 0.18798,-0.031 0.005,0.017 0.021,0.03 0.031,0.031 0.038,0.01 0.16498,-0.051 0.18797,-0.063 0.004,0 -0.006,-0.027 0,-0.031 0.25297,-0.027 0.52094,-0.031 0.7809,-0.031 m -2.49968,0.4688 c -0.023,0.043 -0.047,0.079 -0.094,0.094 0.012,0.065 -0.084,0.1049 -0.094,0.1558 -0.006,0.035 -0.002,0.094 0,0.125 0.02,0.3189 -0.25096,0.4768 -0.56293,0.4688 -0.061,0.058 -0.029,0.1699 -0.063,0.2499 -0.028,0.067 -0.11998,0.1309 -0.18797,0.1249 -0.05,0 -0.12499,-0.079 -0.12499,-0.1249 0,-0.057 0.081,-0.091 0.031,-0.156 0.007,-0.044 0.10598,-0.086 0.094,-0.1559 -0.012,-0.074 -0.096,-0.019 -0.18798,-0.031 -0.052,-0.01 -0.13298,-0.037 -0.18798,-0.063 0.10099,-0.067 0.20498,-0.126 0.31296,-0.188 0.094,-0.056 0.18498,-0.1049 0.28097,-0.1559 0.25197,-0.1269 0.52193,-0.2438 0.7809,-0.3437 m 5.37432,0.7495 c -0.027,0 -0.04,0.018 -0.063,0.031 -0.051,0.031 -0.054,0.079 -0.094,0.094 -0.054,0.021 -0.11698,0.01 -0.12498,0.063 -0.006,0.041 0.033,0.055 0.031,0.094 -0.02,0.049 -0.053,0.066 -0.063,0.1249 0.068,0.11 0.22897,-0.01 0.31296,-0.031 0.038,-0.011 0.073,0 0.094,-0.031 0.023,-0.035 0.013,-0.105 0.031,-0.156 0.019,-0.056 0.069,-0.043 0.063,-0.094 -0.006,-0.05 -0.10599,-0.102 -0.18797,-0.094 m -7.31208,0.7807 c 0.061,0.016 0.19597,0.1929 0.063,0.2499 -0.013,0.01 -0.18698,0.036 -0.21897,0.031 -0.046,-0.01 -0.078,-0.086 -0.12499,-0.094 -0.092,-0.016 -0.21797,0.101 -0.28096,0 0.016,-0.059 0.086,-0.043 0.15598,-0.063 0.12498,-0.034 0.29796,-0.1529 0.40595,-0.1249 m 0.24996,0.3128 c 0.031,0 0.056,0.059 0.094,0.063 0.036,0 0.072,-0.036 0.094,-0.031 0.056,0.015 0.084,0.115 0.031,0.156 -0.044,0 -0.061,-0.037 -0.094,-0.031 -0.091,0.016 -0.11999,0.1929 -0.18798,0.1879 -0.064,-0.01 -0.096,-0.1409 -0.031,-0.1879 0.002,-0.04 -0.033,-0.054 -0.031,-0.094 0.02,-0.025 0.072,-0.066 0.12498,-0.063 m -0.31296,0.031 c 0.019,0.001 0.024,0 0.031,0 -0.009,0.071 -0.039,0.091 -0.094,0.125 -0.095,0.057 -0.15698,0.1279 -0.18797,0.2499 -0.009,0.036 -0.11099,0.1339 -0.15598,0.1249 -0.10599,-0.022 0.038,-0.2199 0.063,-0.2499 0.027,-0.033 0.062,-0.056 0.094,-0.094 0.03,-0.037 0.033,-0.105 0.063,-0.125 0.032,-0.022 0.13198,-0.033 0.18797,-0.031 m 9.49881,0.031 c 0.048,0.013 0.058,0.069 0.094,0.094 0.027,0.018 0.064,0.012 0.094,0.031 0.035,0.022 0.054,0.06 0.094,0.094 0.056,0.047 0.13998,0.088 0.21897,0.125 0.016,0.01 0.044,0.023 0.063,0.031 0.055,0.071 0.10399,0.1449 0.15598,0.2189 0.006,0.04 0.012,0.099 0.031,0.1249 0.052,0.071 0.13098,0.1319 0.18798,0.2189 -10e-4,0.083 0.036,0.133 0.094,0.1559 0.073,0.124 0.14898,0.2479 0.21897,0.3748 0.029,0.058 0.035,0.1289 0.063,0.1879 -0.021,0 -0.043,0.01 -0.063,0 -0.066,-0.116 -0.40895,-0.1389 -0.43795,0.031 -0.013,0.075 0.049,0.1749 -0.063,0.1879 -0.071,0.01 -0.15298,-0.073 -0.24997,-0.094 -0.04,-0.01 -0.094,0.014 -0.12498,0 -0.073,-0.025 -0.062,-0.1119 -0.12498,-0.1559 -0.036,-0.025 -0.12999,-0.056 -0.18798,-0.063 -0.036,0 -0.056,0 -0.094,0 -0.045,-0.01 -0.11798,-0.01 -0.15598,-0.031 -0.036,-0.022 -0.11599,-0.062 -0.12498,-0.094 -0.014,-0.049 0.09,-0.1139 0.094,-0.1558 0.002,-0.031 -0.023,-0.045 -0.031,-0.094 -0.005,-0.029 0.006,-0.074 0,-0.094 -0.01,-0.034 -0.071,-0.062 -0.12499,-0.063 -0.048,0 -0.084,0.03 -0.12498,0.031 -0.059,0.001 -0.17698,-0.037 -0.24997,-0.031 -0.044,0 -0.084,0.028 -0.12499,0.031 -0.11598,0.01 -0.19097,-0.01 -0.28096,0 -0.066,0 -0.18898,0.034 -0.24997,0.063 -0.031,0.014 -0.054,0.043 -0.094,0.063 -0.018,0.01 -0.039,0.021 -0.063,0.031 -0.038,0.017 -0.089,0.053 -0.12498,0.063 -0.052,0.013 -0.12399,0 -0.21898,0 -0.068,0 -0.18697,-0.014 -0.18797,-0.094 -10e-4,-0.1229 0.22697,-0.072 0.34396,-0.094 0.044,-0.01 0.073,-0.063 0.12498,-0.094 0.025,-0.015 0.039,-0.015 0.063,-0.031 0.04,-0.028 0.11898,-0.093 0.12498,-0.1249 0.006,-0.03 -0.035,-0.072 -0.031,-0.094 0.005,-0.028 0.057,-0.058 0.094,-0.094 0.056,-0.055 0.087,-0.1199 0.15598,-0.1559 0.047,-0.025 0.13499,-0.024 0.15599,-0.063 0.005,-0.043 -0.001,-0.055 0,-0.094 0.029,-0.027 0.038,-0.058 0.063,-0.063 0.072,-0.016 0.13498,0.035 0.21897,0.031 0.036,0 0.086,-0.01 0.12498,-0.031 0.033,-0.022 0.062,-0.045 0.094,-0.063 0.035,-0.018 0.051,-0.059 0.094,-0.063 0.10499,-0.01 0.17098,0.1239 0.21897,0.1879 0.04,0.053 0.15299,0.1189 0.21898,0.1559 0.037,0.021 0.084,0.045 0.12498,0.063 0.087,0.039 0.24697,0.1649 0.24997,0.2499 0.002,0.042 -0.038,0.054 -0.031,0.094 0.066,0.011 0.12298,-0.059 0.12498,-0.1249 0.001,-0.041 -0.039,-0.05 -0.031,-0.094 0.031,-0.066 0.14798,-0.01 0.18798,-0.031 -0.007,-0.075 -0.12398,-0.086 -0.18798,-0.1249 -0.034,-0.021 -0.058,-0.048 -0.094,-0.063 -0.052,-0.021 -0.11598,-0.032 -0.15598,-0.063 -0.038,-0.029 -0.057,-0.08 -0.094,-0.1249 -0.054,-0.064 -0.15798,-0.073 -0.12498,-0.2189 0.016,-0.022 0.037,-0.069 0.063,-0.063 m -8.81189,0.2189 0.094,0 c 0.034,10e-4 0.08,-0.018 0.094,0 -0.022,0.088 -0.21197,0.063 -0.28096,0.031 0.004,-0.033 0.05,-0.027 0.094,-0.031 m -0.31296,0.156 c 0.023,0 0.039,-0.01 0.063,0 -0.062,0.052 -0.14398,0.092 -0.24997,0.1249 -0.051,0.016 -0.11598,0.025 -0.12498,-0.031 -0.011,-0.069 0.047,-0.056 0.094,-0.063 0.058,-0.01 0.14999,-0.029 0.21898,-0.031 m 8.6869,0 c -0.043,0.014 -0.066,0.1129 0,0.1249 0.031,-0.018 0.039,-0.068 0.031,-0.1249 -0.017,-0.018 -0.017,0 -0.031,0 m -0.031,0.1879 c -0.021,0.01 -0.04,0.01 -0.063,0.031 10e-4,0.075 0.015,0.1229 0,0.1879 0.043,0.082 0.13398,0.026 0.15598,-0.031 0.026,-0.1389 -0.03,-0.2049 -0.094,-0.1879 m 0.43795,0.3748 c 0.049,0.08 0.14098,0.137 0.24997,0.1559 0.04,-0.03 0.044,-0.1049 0.063,-0.1559 -0.047,10e-4 -0.097,0 -0.15598,0 -0.059,0 -0.12198,-0.028 -0.15598,0 m -11.68652,2.6867 c 0.16398,-0.01 0.21197,0.2159 0.34395,0.2809 0.033,0.017 0.082,0.022 0.12499,0.031 0.035,0.01 0.061,0.02 0.094,0.031 0.071,0.024 0.16198,0.01 0.21897,0.031 0.085,0.038 0.14598,0.2069 0.21897,0.2499 0.004,0.043 -0.013,0.093 0,0.1249 0.035,0.047 0.099,0.064 0.15598,0.094 0.068,0.037 0.092,0.1269 0.15598,0.1559 0.022,0.01 0.059,-0.01 0.094,0 0.088,0.027 0.11199,0.1468 0.18798,0.1248 0.05,-0.014 0.055,-0.078 0.063,-0.1248 0.033,-0.036 0.074,-0.093 0.12498,-0.094 0.083,0 0.095,0.075 0.12499,0.1559 0.017,0.046 0.051,0.1079 0.063,0.1559 0.021,0.083 0.017,0.3249 0,0.3748 -0.021,0.061 -0.10599,0.089 -0.15598,0.156 -0.024,0.031 -0.044,0.071 -0.063,0.094 -0.032,0.04 -0.069,0.057 -0.094,0.094 -0.014,0.021 -0.018,0.066 -0.031,0.094 -0.04,0.085 -0.096,0.148 -0.063,0.2499 0.014,0.042 0.062,0.076 0.063,0.125 0,0.058 -0.11498,0.093 -0.12498,0.1559 -0.007,0.047 0.048,0.126 0.063,0.1879 0.011,0.047 0.097,0.094 0.12498,0.125 0.047,0.053 0.082,0.1209 0.12499,0.1879 0.085,0.1299 0.13598,0.2799 0.21897,0.4058 0.043,0.066 0.12698,0.119 0.15598,0.1879 0.015,0.035 -0.014,0.094 0,0.125 0.048,0.1079 0.26597,0.2279 0.37495,0.2809 0.051,0.025 0.10999,0 0.15598,0.031 0.071,0.039 0.21398,0.1569 0.24997,0.2189 0.032,0.056 0.047,0.1929 0.063,0.2808 0.021,0.117 -0.005,0.2169 0,0.3439 0.004,0.069 0.03,0.1189 0.031,0.1879 0,0.024 10e-4,0.07 0,0.094 -0.002,0.083 0.007,0.1659 0,0.2498 -0.004,0.046 -0.003,0.087 0,0.125 0.004,0.041 0.028,0.057 0.031,0.094 0.002,0.039 -0.035,0.095 -0.031,0.125 0.009,0.084 0.077,0.1419 0.094,0.2189 0.013,0.061 0.039,0.2079 0.031,0.2809 -0.005,0.039 -0.025,0.083 -0.031,0.1249 -0.004,0.033 0.005,0.062 0,0.094 -0.006,0.047 -0.034,0.081 -0.031,0.1249 0.006,0.09 0.08,0.16 0.094,0.2499 0.005,0.03 -10e-4,0.065 0,0.094 0.001,0.027 0.023,0.038 0.031,0.063 -0.26297,-0.1499 -0.50894,-0.3178 -0.74991,-0.4997 -0.22897,-0.173 -0.45094,-0.3639 -0.65592,-0.5628 -0.01,-0.01 -0.021,-0.021 -0.031,-0.031 -0.20698,-0.2039 -0.41395,-0.4278 -0.59393,-0.6557 -0.10398,-0.1319 -0.21797,-0.2669 -0.31296,-0.4058 -0.056,-0.083 -0.10399,-0.1639 -0.15598,-0.2499 -0.032,-0.051 -0.063,-0.104 -0.094,-0.1559 -0.089,-0.153 -0.17297,-0.3078 -0.24997,-0.4687 -0.049,-0.101 -0.081,-0.2079 -0.12498,-0.3129 -0.10499,-0.2479 -0.20497,-0.4888 -0.28096,-0.7497 -0.054,-0.1849 -0.086,-0.3708 -0.12499,-0.5627 -0.03,-0.146 -0.073,-0.2889 -0.094,-0.4378 -0.011,-0.081 -0.023,-0.168 -0.031,-0.2499 -0.024,-0.2349 -0.031,-0.4768 -0.031,-0.7186 0,-0.3019 0.026,-0.5837 0.063,-0.8746 10e-4,-0.01 -10e-4,-0.021 0,-0.031 0.063,0 0.14899,-0.092 0.21898,-0.094 m 2.68766,0.7497 c 0.064,-0.029 0.084,0.117 0.031,0.125 -0.05,0.01 -0.08,-0.102 -0.031,-0.125" />
                <rect width="0" x="293.00085" y="543.62817" height="10.999983" style="fill:#16907d" id="rect4035-8" />
            </g>
        </symbol>
        
        <symbol id="text-x-log" viewBox="0 0 22 22">
            <g id="layer1" transform="matrix(1 0 0 1 -326 -534.3622)">
                <rect width="16" x="329" y="537.36218" height="1" style="fill:#6c7a89;stroke-width:6" id="rect5056"/>
                <rect width="16" x="329" y="552.36218" height="0.999983" style="fill:#6c7a89;stroke-width:6" id="rect5058"/>
                <rect width="11" x="332" y="540.36218" height="1" style="fill:#6c7a89;stroke-width:6" id="rect5060"/>
                <rect width="5" x="332" y="543.36218" height="1" style="fill:#6c7a89;stroke-width:6" id="rect5062"/>
                <rect width="11" x="332" y="546.36218" height="1" style="fill:#6c7a89;stroke-width:6" id="rect5064"/>
                <rect width="5" x="332" y="549.36218" height="1" style="fill:#6c7a89;stroke-width:6" id="rect5066"/>
                <circle cx="329.5" cy="540.86218" style="fill:#6c7a89;stroke-width:6" id="path5068" r="0.5"/>
                <circle cx="329.5" cy="546.86218" style="fill:#6c7a89;stroke-width:6" id="path5070" r="0.5"/>
            </g>
        </symbol>
        
        <symbol id="application-xml" viewBox="0 0 22 22">
            <g id="layer1" transform="matrix(1 0 0 1 -326 -534.3622)">
                <g style="fill:#cf74e0;fill-opacity:1" id="layer1-1" transform="matrix(1 0 0 1 -225.28572 -73.28571)">
                    <path style="color:#000000;fill:#cf74e0;fill-opacity:1" id="path3454"
                          d="m 563.78571,610.64791 -4,15.75384 1,0.24616 4,-15.75385 -1,-0.24615 z" />
                    <path
                        style="color:#000000;fill:#cf74e0;fill-opacity:1"
                        id="path4224"
                        d="m 566.03107,613.64791 -0.74534,0.70967 3.66459,4.29032 -3.66459,4.29033 0.74534,0.70968 3.97515,-4.64516 0.27951,-0.35485 -0.27951,-0.35483 -3.97515,-4.64516 z" />
                    <path
                        style="color:#000000;fill:#cf74e0;fill-opacity:1"
                        id="path4224-7"
                        d="m 558.54037,613.64791 0.74534,0.70967 -3.66459,4.29032 3.66459,4.29033 -0.74534,0.70968 -3.97515,-4.64516 -0.27951,-0.35485 0.27951,-0.35483 3.97515,-4.64516 z" />
                </g>
            </g>
        </symbol>
        
        <symbol id="application-bpmn-xml" viewBox="0 0 22 22">
            <path
                style="opacity:1;fill:#3c559f;fill-opacity:1;stroke:none;stroke-width:2;stroke-miterlimit:4;stroke-dasharray:none;stroke-opacity:1"
                d="M 16.5 2 L 13.5 5 L 7.9492188 5 A 2.5 2.5 0 0 0 5.5 3 A 2.5 2.5 0 0 0 3 5.5 A 2.5 2.5 0 0 0 5 7.9453125 L 5 17 L 6 17 L 8 17 L 8 19 L 13 19 L 13 17 L 16 17 L 17 17 L 17 8.5 L 20 5.5 L 16.5 2 z M 16.5 3.4003906 L 18.599609 5.5 L 16.5 7.5996094 L 14.400391 5.5 L 16.5 3.4003906 z M 5.5 4 A 1.5 1.5 0 0 1 7 5.5 A 1.5 1.5 0 0 1 5.5 7 A 1.5 1.5 0 0 1 4 5.5 A 1.5 1.5 0 0 1 5.5 4 z M 7.9453125 6 L 13.5 6 L 16 8.5 L 16 16 L 13 16 L 13 14 L 8 14 L 8 16 L 6 16 L 6 7.9492188 A 2.5 2.5 0 0 0 7.9453125 6 z M 9 15 L 12 15 L 12 18 L 9 18 L 9 15 z "
                id="path4146" />
        </symbol>
        
        
        <symbol id="x-office-book" viewBox="0 0 22 22">
            <g id="layer1" transform="matrix(1 0 0 1 -326 -534.3622)">
                <path style="fill:currentColor;fill-opacity:1;stroke:none"
                      d="m 331,537.3622 0,1 0,1 -2,0 0,3 2,0 0,6 -2,0 0,3 2,0 0,2 1,0 13,0 0,-1 0,-14 0,-1 -14,0 m 1,1 2,0 0,14 -2,0 0,-14 m 3,0 9,0 0,14 -9,0 0,-14"
                      id="path6" />
            </g>
        </symbol>
        
        <symbol id="application-x-mobipocket-ebook" >
            <use xlink:href="#x-office-book" class="icon-blue"/>
        </symbol>
        
        <symbol id="application-epub-zip" >
            <use xlink:href="#x-office-book" class="icon-yellow"/>
        </symbol>
    

        <symbol id="x-video" viewBox="0 0 22 22">
            <g id="layer1" transform="matrix(1 0 0 1 -326 -534.3622)">
                <path style="fill:currentColor;clip-rule:nonzero;display:inline;overflow:visible;visibility:visible;opacity:1;isolation:auto;mix-blend-mode:normal;solid-color:#000000;solid-opacity:1;fill-opacity:1;fill-rule:nonzero;stroke-width:1;stroke-linecap:butt;stroke-linejoin:miter;stroke-miterlimit:4;stroke-dasharray:none;stroke-dashoffset:0;stroke-opacity:1;filter-blend-mode:normal;filter-gaussianBlur-deviation:0;enable-background:accumulate"
                      id="rect3009"
                      d="m 3,4 0,15 1,0 2,0 10,0 2,0 1,0 L 19,4 18,4 16,4 6,4 4,4 3,4 Z M 4,5 5,5 5,6 4,6 4,5 Z m 2,0 10,0 0,5.5 -10,0 L 6,5 Z m 11,0 1,0 0,1 -1,0 0,-1 z M 4,8 5,8 5,9 4,9 4,8 Z m 13,0 1,0 0,1 -1,0 0,-1 z m -13,3 1,0 0,1 -1,0 0,-1 z m 13,0 1,0 0,1 -1,0 0,-1 z m -11,1.5 10,0 0,5.5 -10,0 0,-5.5 z m -2,1.5 1,0 0,1 -1,0 0,-1 z m 13,0 1,0 0,1 -1,0 0,-1 z m -13,3 1,0 0,1 -1,0 0,-1 z m 13,0 1,0 0,1 -1,0 0,-1 z"
                      transform="matrix(1 0 0 1 326 533.8622)" />
            </g>
        </symbol>
                
        <symbol id="video-webm" >
            <use xlink:href="#x-video" class="icon-blue"/>
        </symbol>
        
        <symbol id="video-x-matroska" >
            <use xlink:href="#x-video" class="icon-red"/>
        </symbol>
        
        <symbol id="video-x-mp4" >
            <use xlink:href="#x-video" class="icon-brown"/>
        </symbol>
                                
        <symbol id="x-audio" viewBox="0 0 22 22">
            <g id="layer1" transform="matrix(1 0 0 1 -326 -534.3622)">
                <path style="fill:currentColor" id="rect5233" d="M 7 3 L 7 4 L 7 14.503906 A 2.5 2.5 0 0 0 5.5 14 A 2.5 2.5 0 0 0 3 16.5 A 2.5 2.5 0 0 0 5.5 19 A 2.5 2.5 0 0 0 8 16.5 L 8 7 L 18 7 L 18 12.503906 A 2.5 2.5 0 0 0 16.5 12 A 2.5 2.5 0 0 0 14 14.5 A 2.5 2.5 0 0 0 16.5 17 A 2.5 2.5 0 0 0 19 14.5 L 19 4 L 19 3.5 L 19 3 L 8 3 L 7 3 z M 8 4 L 18 4 L 18 6 L 8 6 L 8 4 z " transform="matrix(1 0 0 1 326 534.3622)"/>
            </g>
        </symbol>
                                
        <symbol id="audio-mp3" >
            <use xlink:href="#x-audio" class="icon-brown"/>
        </symbol>             
        
        <symbol id="audio-mpeg" >
            <use xlink:href="#x-audio" class="icon-yellow"/>
        </symbol>
        
        <symbol id="x-zip" viewBox="0 0 22 22">
            <g id="layer1" transform="matrix(1 0 0 1 -326 -534.3622)">
                <path
                    style="fill:currentColor;stroke-width:2;fill-opacity:1"
                    id="rect5669"
                    d="M 3 3 L 3 19 L 19 19 L 19 3 L 3 3 z M 4 4 L 18 4 L 18 18 L 4 18 L 4 4 z "
                    transform="matrix(1 0 0 1 326 534.3622)" />
                <path
                    style="fill:currentColor;stroke-width:2;fill-opacity:1"
                    id="rect5711"
                    d="M 10 4 L 10 5 L 11 5 L 11 4 L 10 4 z M 11 5 L 11 6 L 12 6 L 12 5 L 11 5 z M 11 6 L 10 6 L 10 7 L 11 7 L 11 6 z M 11 7 L 11 8 L 12 8 L 12 7 L 11 7 z M 11 8 L 10 8 L 10 9 L 11 9 L 11 8 z M 11 9 L 11 10 L 12 10 L 12 9 L 11 9 z M 11 10 L 10 10 L 10 11 L 11 11 L 11 10 z M 11 11 L 11 12 L 12 12 L 12 11 L 11 11 z M 11 12 L 10 12 L 10 13 L 10 14 L 11 14 L 12 14 L 12 13 L 11 13 L 11 12 z "
                    transform="matrix(1 0 0 1 326 534.3622)" />
            </g>
        </symbol>
        
        <symbol id="application-zip" class="icon-yellow">
            <use xlink:href="#x-zip" />
        </symbol>
        
        <symbol id="application-gzip" class="icon-brown">
            <use xlink:href="#x-zip" />
        </symbol>
                                            
        <symbol id="application-x-bittorrent" viewBox="0 0 22 22">
            <g id="layer1" transform="matrix(1 0 0 1 -326 -534.3622)">
                <path style="fill:#75d8e1;fill-opacity:1;stroke:none"
                      d="m 337,537.3622 c -0.97291,3.405 -3.35445,6.3323 -4.4043,8.6758 -0.3674,0.6968 -0.5957,1.4788 -0.5957,2.3242 0,2.77 2.23,5 5,5 2.77,0 5,-2.23 5,-5 0,-0.8454 -0.2283,-1.6274 -0.5957,-2.3242 -1.04985,-2.3435 -3.4314,-5.2708 -4.4043,-8.6758 z m 2.2832,7.7168 c 1.0377,0.7212 1.7168,1.9183 1.7168,3.2832 0,2.216 -1.784,4 -4,4 -1.36496,0 -2.562,-0.679 -3.2832,-1.7168 0.64704,0.4497 1.43212,0.7168 2.2832,0.7168 2.216,0 4,-1.784 4,-4 0,-0.8511 -0.26709,-1.6362 -0.7168,-2.2832 z"
                      class="ColorScheme-Text"
                      id="path6" />
            </g>
        </symbol>
                                                                                                                                                        
        <symbol id="folder-blue" class="icon-blue">
            <use xlink:href="#folder" />
        </symbol>
        <symbol id="folder-yellow" >
            <use xlink:href="#folder" style="color:#fdbc4b"/>
        </symbol>
    
        <symbol id="folder-brown" >
            <use xlink:href="#folder" style="color:#d35400"/>
        </symbol>
        
        <symbol id="application-vnd-openxmlformats-officedocument-spreadsheetml-sheet" class="icon-yellow">
            <use xlink:href="#x-office-spreadsheet" />
        </symbol>
        
        <symbol id="application-vnd-openxmlformats-officedocument-presentationml-presentation" class="icon-yellow">
            <use xlink:href="#x-office-presentation" />
        </symbol>
        
        <symbol id="application-vnd-openxmlformats-officedocument-wordprocessingml-document" class="icon-yellow">
            <use xlink:href="#x-office-document" />
        </symbol>
        
        
        <symbol id="application-vnd-oasis-opendocument-spreadsheet" class="icon-blue">
            <use xlink:href="#x-office-spreadsheet" />
        </symbol>
        
        <symbol id="application-vnd-oasis-opendocument-presentation" class="icon-blue">
            <use xlink:href="#x-office-presentation" />
        </symbol>
        
        <symbol id="application-vnd-oasis-opendocument-text" class="icon-blue">
            <use xlink:href="#x-office-document" />
        </symbol>
        
        <symbol id="application-vnd-ms-excel" class="icon-brown">
            <use xlink:href="#x-office-spreadsheet" />
        </symbol>
        
        <symbol id="application-vnd-ms-powerpoint" class="icon-brown">
            <use xlink:href="#x-office-presentation" />
        </symbol>
        
        <symbol id="application-msword" class="icon-brown">
            <use xlink:href="#x-office-document" />
        </symbol>
                               
    </defs>
    
    
    
</svg>